<svg width="64" height="60" viewBox="0 0 64 60" fill="none" xmlns="http://www.w3.org/2000/svg">
<path d="M49.0833 44.3333L62.75 30M62.75 30L49.0833 15.6667M62.75 30H14.9167M35.4167 44.3333V47.9167C35.4167 50.7677 34.3368 53.502 32.4145 55.5181C30.4923 57.5341 27.8851 58.6667 25.1667 58.6667H11.5C8.78153 58.6667 6.1744 57.5341 4.25216 55.5181C2.32991 53.502 1.25 50.7677 1.25 47.9167V12.0833C1.25 9.23225 2.32991 6.49795 4.25216 4.48193C6.1744 2.46592 8.78153 1.33333 11.5 1.33333H25.1667C27.8851 1.33333 30.4923 2.46592 32.4145 4.48193C34.3368 6.49795 35.4167 9.23225 35.4167 12.0833V15.6667" stroke="black" stroke-width="2" stroke-linecap="round" stroke-linejoin="round"/>
</svg>
