<svg width="154" height="177" viewBox="0 0 154 177" fill="none" xmlns="http://www.w3.org/2000/svg">
<g clip-path="url(#clip0_16_2)">
<path fill-rule="evenodd" clip-rule="evenodd" d="M77 14.75V62.6875C77.0001 65.4375 77.8914 68.0889 79.5 70.1246C81.1087 72.1603 83.3194 73.4344 85.701 73.6984L86.625 73.75H128.333V147.5C128.334 151.221 127.112 154.805 124.91 157.534C122.709 160.263 119.691 161.934 116.462 162.213L115.5 162.25H38.5C35.2623 162.251 32.1439 160.846 29.7698 158.315C27.3958 155.785 25.9416 152.317 25.6987 148.606L25.6667 147.5V29.5C25.6656 25.7787 26.8884 22.1946 29.0899 19.466C31.2914 16.7373 34.3089 15.066 37.5375 14.7869L38.5 14.75H77ZM77 84.8125C75.4283 84.8127 73.9114 85.4759 72.7369 86.6763C71.5625 87.8766 70.8121 89.5307 70.6282 91.3246L70.5833 92.1875V103.25H60.9583C59.3228 103.252 57.7498 103.972 56.5605 105.262C55.3713 106.553 54.6556 108.316 54.5598 110.193C54.464 112.069 54.9951 113.917 56.0449 115.359C57.0946 116.8 58.5835 117.726 60.2076 117.948L60.9583 118H70.5833V129.062C70.5851 130.942 71.2114 132.75 72.3341 134.117C73.4568 135.484 74.9913 136.306 76.6239 136.417C78.2566 136.527 79.8643 135.916 81.1184 134.71C82.3726 133.503 83.1786 131.792 83.3717 129.925L83.4167 129.062V118H93.0417C94.6771 117.998 96.2502 117.278 97.4394 115.988C98.6287 114.697 99.3443 112.934 99.4402 111.057C99.536 109.181 99.0048 107.333 97.9551 105.891C96.9054 104.45 95.4164 103.524 93.7924 103.302L93.0417 103.25H83.4167V92.1875C83.4167 90.2315 82.7406 88.3557 81.5373 86.9726C80.3339 85.5895 78.7018 84.8125 77 84.8125ZM89.8333 15.0671C91.9083 15.5734 93.8418 16.663 95.4607 18.2384L96.25 19.0717L124.573 51.625C126.077 53.3516 127.183 55.4803 127.794 57.82L128.051 59H89.8333V15.0671Z" fill="black"/>
</g>
<defs>
<clipPath id="clip0_16_2">
<rect width="154" height="177" fill="white"/>
</clipPath>
</defs>
</svg>
