<svg width="69" height="71" viewBox="0 0 69 71" fill="none" xmlns="http://www.w3.org/2000/svg">
<g clip-path="url(#clip0_11_6)">
<path d="M0 7.1C0 5.21696 0.726962 3.41105 2.02096 2.07954C3.31496 0.748033 5.07001 0 6.9 0L46.3956 0C48.225 0.00165716 49.9788 0.750778 51.2716 2.08267L66.9806 18.2423C68.2733 19.5733 68.9996 21.3779 69 23.2596V63.9C69 65.783 68.273 67.5889 66.979 68.9205C65.685 70.252 63.93 71 62.1 71H50.6V54.4333C50.6 52.5503 49.873 50.7444 48.579 49.4129C47.285 48.0814 45.53 47.3333 43.7 47.3333H25.3C23.47 47.3333 21.715 48.0814 20.421 49.4129C19.127 50.7444 18.4 52.5503 18.4 54.4333V71H6.9C5.07001 71 3.31496 70.252 2.02096 68.9205C0.726962 67.5889 0 65.783 0 63.9L0 7.1Z" fill="black"/>
<path d="M23 71H46V54.4333C46 53.8057 45.7577 53.2037 45.3263 52.7598C44.895 52.316 44.31 52.0667 43.7 52.0667H25.3C24.69 52.0667 24.105 52.316 23.6737 52.7598C23.2423 53.2037 23 53.8057 23 54.4333V71Z" fill="black"/>
</g>
<defs>
<clipPath id="clip0_11_6">
<rect width="69" height="71" fill="white"/>
</clipPath>
</defs>
</svg>
